<?xml version="1.0" standalone="no"?>
<!DOCTYPE svg PUBLIC "-//W3C//DTD SVG 20010904//EN"
 "http://www.w3.org/TR/2001/REC-SVG-20010904/DTD/svg10.dtd">
<svg version="1.0" xmlns="http://www.w3.org/2000/svg"
 width="70.000000pt" height="70.000000pt" viewBox="0 0 70.000000 70.000000"
 preserveAspectRatio="xMidYMid meet">
<metadata>
Created by potrace 1.14, written by Peter Selinger 2001-2017
</metadata>
<g transform="translate(0.000000,70.000000) scale(0.100000,-0.100000)"
fill="#000000" stroke="none">
<path d="M164 601 c-38 -23 -74 -68 -74 -91 0 -10 -11 -25 -25 -34 -21 -14
-25 -24 -25 -62 0 -50 34 -126 72 -160 34 -32 120 -84 137 -84 8 0 37 -21 62
-46 l48 -47 111 104 c120 111 174 184 149 200 -22 14 -100 11 -156 -6 -72 -21
-103 -49 -103 -90 0 -25 -7 -39 -27 -55 -69 -54 -154 48 -90 108 13 12 33 22
44 22 12 0 43 13 70 30 73 45 176 58 266 33 14 -4 17 3 17 42 0 79 -45 136
-120 150 -44 8 -86 -7 -126 -46 l-31 -30 -36 34 c-51 49 -111 59 -163 28z m66
-156 c0 -50 -2 -55 -22 -55 -38 0 -50 14 -46 56 3 37 14 47 61 53 4 1 7 -24 7
-54z m-90 -5 c0 -25 -4 -30 -25 -30 -14 0 -25 -5 -25 -10 0 -31 37 -92 88
-142 59 -61 60 -72 2 -37 -74 45 -114 100 -126 178 -8 51 7 71 52 71 31 0 34
-3 34 -30z"/>
<path d="M443 409 c-42 -12 -103 -48 -103 -61 0 -11 -3 -12 71 25 44 22 72 28
127 30 38 1 65 5 58 9 -15 10 -114 8 -153 -3z"/>
<path d="M256 324 c-21 -21 -20 -57 2 -77 24 -22 45 -21 65 1 32 35 11 92 -33
92 -10 0 -26 -7 -34 -16z m62 -30 c4 -25 -20 -47 -42 -38 -19 7 -22 50 -3 57
23 10 42 2 45 -19z"/>
</g>
</svg>
